<?xml version="1.0" standalone="no"?>
<!DOCTYPE svg PUBLIC "-//W3C//DTD SVG 20010904//EN"
 "http://www.w3.org/TR/2001/REC-SVG-20010904/DTD/svg10.dtd">
<svg version="1.0" xmlns="http://www.w3.org/2000/svg"
 width="328.000000pt" height="328.000000pt" viewBox="0 0 328.000000 328.000000"
 preserveAspectRatio="xMidYMid meet">
<metadata>
Created by potrace 1.11, written by Peter Selinger 2001-2013
</metadata>
<g transform="translate(0.000000,328.000000) scale(0.100000,-0.100000)"
fill="#000000" stroke="none">
<path d="M1560 3264 c-123 -18 -125 -19 -240 -52 -134 -39 -248 -88 -366 -157
-78 -46 -200 -132 -240 -170 -72 -66 -142 -137 -177 -177 -204 -238 -349 -562
-384 -856 -10 -87 -10 -327 0 -421 11 -103 60 -285 109 -409 134 -336 407
-643 730 -820 l57 -31 12 57 c44 207 -19 386 -207 584 -25 26 -43 48 -41 48 3
0 31 -13 63 -29 78 -38 302 -119 351 -126 30 -4 55 2 117 29 313 139 394 287
251 462 -116 141 -269 166 -665 107 -25 -3 -56 -7 -70 -9 -14 -1 -29 -2 -34
-3 -10 -1 0 -177 14 -236 5 -22 10 -44 10 -49 0 -8 -57 32 -91 64 -32 29 -95
128 -109 169 -10 31 -20 43 -39 47 -112 22 -179 65 -243 154 -30 42 -60 102
-54 107 5 5 66 10 141 12 70 1 47 16 -65 41 -52 12 -99 26 -105 31 -5 5 -10
37 -10 70 0 70 -2 67 171 184 104 70 111 78 125 122 16 54 36 68 149 103 92
28 112 31 230 37 58 2 110 6 115 7 6 2 -17 10 -50 19 -90 25 -128 48 -147 87
-29 60 -7 107 91 193 67 58 219 146 360 208 l34 15 101 -63 c88 -55 260 -145
377 -197 282 -124 653 -156 879 -77 l55 19 -90 -1 c-118 -1 -188 9 -293 39
-259 75 -430 246 -495 497 -17 65 -18 65 49 2 123 -116 313 -222 464 -261 159
-40 314 -50 458 -29 94 13 116 25 51 26 -190 3 -345 73 -400 180 l-18 37 67
-34 c37 -19 81 -36 97 -40 57 -11 201 -13 238 -3 66 18 63 24 -64 131 -173
145 -383 254 -619 321 -50 14 -99 25 -200 42 -73 13 -366 12 -450 -1z"/>
<path d="M1457 2305 c-74 -20 -153 -63 -173 -92 -21 -32 -20 -87 1 -119 l16
-24 32 37 c17 21 34 40 37 43 25 25 144 170 139 169 -2 0 -26 -7 -52 -14z"/>
<path d="M2362 1483 c11 -50 21 -146 23 -223 8 -260 -58 -487 -197 -682 -33
-46 -126 -149 -144 -161 -5 -3 -10 42 -10 102 -2 107 -26 230 -59 290 -12 23
-14 23 -15 6 -4 -91 -45 -245 -86 -328 -82 -164 -243 -337 -391 -423 -18 -10
-33 -21 -33 -25 0 -17 168 -34 330 -34 160 0 221 6 354 35 385 84 748 322 974
639 l31 43 -21 41 c-71 140 -250 355 -332 399 -16 9 -18 8 -11 -8 21 -53 46
-169 51 -245 12 -155 -40 -323 -132 -426 -37 -43 -40 -39 -20 28 24 78 31 148
31 299 0 117 -5 163 -24 240 -29 120 -105 280 -172 362 -50 60 -148 157 -160
158 -3 0 3 -39 13 -87z"/>
<path d="M1287 366 c-7 -67 -42 -148 -86 -198 -17 -20 -31 -38 -31 -42 0 -9
66 -35 142 -56 l67 -18 7 55 c13 108 -15 219 -74 292 l-19 23 -6 -56z"/>
</g>
</svg>
